<svg width="502" height="402" viewBox="0 0 502 402" xmlns="http://www.w3.org/2000/svg" xmlns:xlink="http://www.w3.org/1999/xlink"><title>blusa-manga-tulipa-mold</title><defs><path d="M115.803 99.217L69.313 86.09s-.27 8.613-7.487 15.12c-7.217 6.505-14.07 7.967-14.07 7.967l-.027 37.955 44.343.258 23.77 2.353s-2.795-7.603-2.795-24.738c0-17.135 2.755-25.788 2.755-25.788zM46.747 6.257C25.597 5.426 11.817 3 11.817 3S-3.6 27.784 2.376 32.976c3.432 2.982 16.444-.388 33.373-1.174 15.88-.737 46.85-1.456 50.63-1.543 3.78.086 34.752.805 50.632 1.542 16.93.786 29.94 4.156 33.374 1.174C176.36 27.784 160.946 3 160.946 3s-13.782 2.425-34.93 3.258c-19.394.765-36.867.828-39.635.834-2.768-.006-20.24-.07-39.633-.834zm39.87 44.768c-3.5-.085-21.333-.53-38.8-1.244-19.484-.794-36.61-3.334-40.222-2.67C2.12 48.113.5 53.615.023 56.564c-.18 1.118.654 2.292 3.544 2.905 2.89.612 20.19 2.59 34.623 3.596 18.473 1.29 44.145 1.3 48.427 1.294 4.28.007 29.953-.005 48.426-1.294 14.434-1.007 31.733-2.984 34.623-3.596 2.89-.613 3.724-1.787 3.544-2.905-.476-2.95-2.096-8.45-7.57-9.456-3.613-.664-20.74 1.876-40.223 2.67-17.468.714-35.3 1.16-38.8 1.245zM6 125h27v216H6V125zm42.413 35.554v179.23s26.97.77 54.46-2.745c27.487-3.516 52.146-10.147 52.146-10.147s-9.23-52.974-9.23-64.832c0-11.856-2.03-47.173 2.485-66.892-12.198-2.537-18.01-14.142-18.01-23.167-7.63-4.733-27.393-10.832-31.94-11.446-4.548-.615-21.226 0-29.03 0H48.414zm151.023-104.15l1.037 13.588s31.813 2.852 63.986-13.587c32.172-16.44 44.503-41.596 44.503-41.596S291.093.02 272.646 1.24c-18.446 1.222-27.066 9.07-34.212 17.696-7.146 8.627-12.956 22.175-19.325 28.156-6.37 5.98-11.59 10.35-19.674 9.313zM321.77 7.88s3.43 25.075 36.185 44.19c32.756 19.118 60.67 18.225 60.67 18.225l1.36-14.212s-10.944-4.557-18.75-14.615c-7.81-10.058-19.097-27.47-28.79-34.304-9.692-6.832-34.584-10.423-50.675.718zM287.852 97.69C280.125 93.67 277.718 84 277.718 84s-11.908 3.292-21.43 6.355C246.766 93.42 232 98.708 232 98.708s4.373 10.478 6.74 21.41c2.367 10.93 1.877 18.392 1.877 18.392h141s-.49-7.462 1.877-18.393c2.366-10.93 6.74-21.41 6.74-21.41s-14.766-5.288-24.288-8.352c-9.522-3.063-21.43-6.355-21.43-6.355s-2.408 9.668-10.135 13.69c-6.916 3.602-20.494 3.926-23.263 3.954-2.77-.028-16.347-.352-23.265-3.953zm23.53 47.543c-3.02-.068-23.442-.494-42.293.01-20.417.543-32.327 2-32.327 2s1.068 21.5-6.844 34.5c-7.913 12.997-23.904 16.014-23.904 16.014s4.78 24.572 3.614 50.133c-1.167 25.562-9.63 81.61-9.63 81.61s24.8 6.21 50.608 9.153c23.578 2.688 55.118 3.46 60.392 3.573v.016l.38-.008.383.008v-.016c5.273-.113 36.813-.885 60.39-3.573 25.81-2.942 50.61-9.152 50.61-9.152s-8.463-56.048-9.63-81.61c-1.168-25.56 3.613-50.133 3.613-50.133s-15.99-3.017-23.902-16.015c-7.912-13-6.844-34.5-6.844-34.5s-11.91-1.456-32.326-2c-18.85-.503-39.273-.077-42.293-.01z" id="g"/><linearGradient x1="9.595%" y1="110.236%" x2="123.646%" y2="-50.947%" id="h"><stop stop-color="#F4A37D" offset="0%"/><stop stop-color="#23E8C2" offset="100%"/></linearGradient><path id="a" d="M0 0h14v216H0z"/><mask id="j" x="0" y="0" width="14" height="216" fill="#fff"><use xlink:href="#a"/></mask><path id="b" d="M13 0h14v216H13z"/><mask id="k" x="0" y="0" width="14" height="216" fill="#fff"><use xlink:href="#b"/></mask><path d="M45.747 3.258C24.597 2.425 10.817 0 10.817 0S-4.6 24.784 1.376 29.976c3.432 2.982 16.444-.388 33.373-1.174 15.88-.737 46.85-1.456 50.63-1.543 3.78.086 34.752.805 50.632 1.542 16.93.786 29.94 4.156 33.374 1.174C175.36 24.784 159.946 0 159.946 0s-13.782 2.425-34.93 3.258c-19.394.765-36.867.828-39.635.834-2.768-.006-20.24-.07-39.633-.834z" id="c"/><mask id="l" x="0" y="0" width="170.762" height="31.186" fill="#fff"><use xlink:href="#c"/></mask><path d="M86.617 4.025c-3.5-.085-21.333-.53-38.8-1.244C28.332 1.987 11.206-.553 7.594.11 2.12 1.113.5 6.615.023 9.564c-.18 1.118.654 2.292 3.544 2.905 2.89.612 20.19 2.59 34.623 3.596 18.473 1.29 44.145 1.3 48.427 1.294 4.28.007 29.953-.005 48.426-1.294 14.434-1.007 31.733-2.984 34.623-3.596 2.89-.613 3.724-1.787 3.544-2.905-.476-2.95-2.096-8.45-7.57-9.456-3.613-.664-20.74 1.876-40.223 2.67-17.468.714-35.3 1.16-38.8 1.245z" id="d"/><mask id="m" x="0" y="0" width="173.233" height="17.36" fill="#fff"><use xlink:href="#d"/></mask><path d="M55.852 13.69C48.125 9.67 45.718 0 45.718 0S33.81 3.292 24.288 6.355C14.766 9.42 0 14.708 0 14.708s4.373 10.478 6.74 21.41C9.107 47.047 8.617 54.51 8.617 54.51h141s-.49-7.462 1.877-18.393c2.366-10.93 6.74-21.41 6.74-21.41s-14.766-5.288-24.288-8.352C124.424 3.292 112.516 0 112.516 0s-2.408 9.668-10.135 13.69c-6.916 3.602-20.494 3.926-23.263 3.954-2.77-.028-16.347-.352-23.265-3.953z" id="e"/><mask id="n" x="0" y="0" width="158.234" height="54.51" fill="#fff"><use xlink:href="#e"/></mask><path d="M111.38.233c-3.018-.068-23.44-.494-42.29.01-20.417.543-32.327 2-32.327 2s1.068 21.5-6.844 34.5C22.006 49.74 6.015 52.756 6.015 52.756s4.78 24.572 3.614 50.133C8.463 128.452 0 184.5 0 184.5s24.8 6.21 50.608 9.153c23.578 2.688 55.118 3.46 60.392 3.573v.016l.38-.008.383.008v-.016c5.273-.113 36.813-.885 60.39-3.573 25.81-2.942 50.61-9.152 50.61-9.152s-8.463-56.048-9.63-81.61c-1.168-25.56 3.613-50.133 3.613-50.133s-15.99-3.017-23.902-16.015c-7.912-13-6.844-34.5-6.844-34.5s-11.91-1.456-32.326-2C134.824-.26 114.4.165 111.38.232z" id="f"/><mask id="o" x="0" y="0" width="222.763" height="197.242" fill="#fff"><use xlink:href="#f"/></mask></defs><g fill="none" fill-rule="evenodd"><path stroke="#F6F0F3" d="M1 1h500v400H1z"/><g transform="translate(55 29)"><mask id="i" fill="#fff"><use xlink:href="#g"/></mask><use fill="#D8D8D8" opacity=".6" xlink:href="#g"/><path fill="url(#h)" mask="url(#i)" d="M-54-28h500v400H-54z"/></g><g transform="translate(61 154)"><use stroke="#000" mask="url(#j)" stroke-width="2" xlink:href="#a"/><use stroke="#000" mask="url(#k)" stroke-width="2" xlink:href="#b"/><path d="M19.5 1.495v213.01" stroke="#EA4B4B" stroke-linecap="square"/><g stroke="#000" stroke-linecap="square"><path d="M18.5 5.5h2M18.5 34.5h2M19.5 5.5v7M19.5 34.5v7M18.5 12.5h2M18.5 41.5h2M18.5 62.5h2M19.5 62.5v7M18.5 69.5h2M18.5 90.5h2M19.5 90.5v7M18.5 97.5h2M18.5 120.5h2M19.5 120.5v7M18.5 127.5h2M18.5 148.5h2M19.5 148.5v7M18.5 155.5h2M18.5 176.5h2M19.5 176.5v7M18.5 183.5h2"/></g></g><g stroke="#000"><path d="M376.77 36.878s3.43 25.075 36.185 44.19c32.756 19.118 60.67 18.225 60.67 18.225l1.36-14.212s-10.944-4.557-18.75-14.615c-7.81-10.058-19.097-27.47-28.79-34.304-9.692-6.832-34.584-10.423-50.675.718z"/><path d="M388.5 31.5v25M429.5 37.5l-5 5" stroke-linecap="square"/></g><g stroke="#000"><path d="M254.436 85.405l1.037 13.587s31.813 2.852 63.986-13.587c32.172-16.44 44.503-41.596 44.503-41.596s-17.87-14.79-36.317-13.57c-18.446 1.222-27.066 9.07-34.212 17.696-7.146 8.627-12.956 22.175-19.325 28.156-6.37 5.98-11.59 10.35-19.674 9.313z"/><path d="M273.5 76.5l3 3M316.5 32.5v44M304.5 38.5l5 7" stroke-linecap="square"/></g><g transform="translate(56 32)" stroke="#000"><use mask="url(#l)" stroke-width="2" xlink:href="#c"/><path d="M85.5 5.5v21.024" stroke-linecap="square"/></g><g transform="translate(55 76)" stroke="#000"><use mask="url(#m)" stroke-width="2" xlink:href="#d"/><path d="M6.102 4.795l-1.364 2.88M12.603 5.348l-2.038 3.075M11.778 6.565l-6.652.076"/><path d="M86.5 4.5v12.042M45.5 15.5v-4M127.5 15.5v-4" stroke-linecap="square"/></g><g transform="translate(287 113)" stroke="#000"><use mask="url(#n)" stroke-width="2" xlink:href="#e"/><path d="M79.5 18.5v35M109.5 8.5l4 2M154.5 22.5l-4-1M84.5 53.5v-2M73.5 53.5v-2M48.5 7.5l-4 2M3.5 22.5l3-1" stroke-linecap="square"/></g><g stroke="#000"><path d="M170.803 128.217l-46.49-13.126s-.27 8.613-7.487 15.12c-7.217 6.505-14.07 7.967-14.07 7.967l-.027 37.955 44.343.258 23.77 2.353s-2.795-7.603-2.795-24.738c0-17.135 2.755-25.788 2.755-25.788z"/><path d="M143.5 175.5v-3M123.5 176.5v-4" stroke-linecap="square"/></g><g stroke="#000"><path d="M103.413 189.554v179.23s26.97.77 54.46-2.745c27.487-3.516 52.146-10.147 52.146-10.147s-9.23-52.974-9.23-64.832c0-11.856-2.03-47.173 2.485-66.892-12.198-2.537-18.01-14.142-18.01-23.167-7.63-4.733-27.393-10.832-31.94-11.446-4.548-.615-21.226 0-29.03 0h-20.882z"/><path d="M124.5 189.5v3M159.5 191.5v4M186.5 210.5l-2 1M200.5 291.5h-3" stroke-linecap="square"/></g><g transform="translate(255 174)" stroke="#000"><use mask="url(#o)" stroke-width="2" xlink:href="#f"/><path d="M9.5 119.5h3M99.5.5v3M214.5 118.5h-5.1M122.5.5v3M111.5 1.5v195" stroke-linecap="square"/></g><g font-size="21" font-family="HelveticaNeue, Helvetica Neue" letter-spacing=".05" fill="#000"><text transform="translate(25 40)"><tspan x="0" y="30">01</tspan></text><text transform="translate(25 40)"><tspan x="6" y="132">03</tspan></text><text transform="translate(25 40)"><tspan x="54" y="91">02</tspan></text><text transform="translate(25 40)"><tspan x="228" y="20">05</tspan></text><text transform="translate(25 40)"><tspan x="343" y="42">06</tspan></text><text transform="translate(25 40)"><tspan x="235" y="104">07</tspan></text><text transform="translate(25 40)"><tspan x="238" y="155">08</tspan></text><text transform="translate(25 40)"><tspan x="163" y="162">04</tspan></text></g></g></svg>