<svg width="502" height="399" viewBox="0 0 502 399" xmlns="http://www.w3.org/2000/svg" xmlns:xlink="http://www.w3.org/1999/xlink"><title>blusa-manga-tulipa-thumb</title><defs><path d="M37.895 23.364l.03-.41s19.83-3.71 33.467-5.895C74.375 13.12 84.617 2.102 84.617 2.102s11.804.633 22.262.633 11.48-.633 21.665-.633c3.188 3.323 11.293 11.737 14.507 14.956 13.197 3.24 30.982 5.893 30.982 5.893s2.672 34.187 1.225 66.002c-1.448 31.815.588 45.575 1.257 57.528 3.1 55.376 9.714 95.19 9.714 95.19s-10.155 5.39-31.02 7.85c-19.078 2.252-44.945 1.677-49.23 1.563-4.285.114-30.152.69-49.232-1.562-20.863-2.46-31.02-7.85-31.02-7.85s9.097-39.815 12.198-95.19c.563-10.06.335-21.398-.613-43.7-.805.248-2.182.562-3.263.244-1.63-.48-3.76-2.03-3.76-2.03s-5.162-14.243-11.3-20.884c-6.137-6.64-13.43-17.406-15.63-23.437C1.157 50.647 0 42.927 0 42.927s9.806-9.25 18.99-13.982c8.682-4.474 17.918-5.483 18.905-5.58zm381.21-.005l-.03-.407s-17.712-5.41-31.067-6.973c-.168.04-.344.083-.53.126L374.182 0s-12.01 3.077-22.9 3.077C340.39 3.077 327.708 0 327.708 0l-13.264 16.034c-13.318 1.63-31.48 6.92-31.48 6.92l-.03.4c-.983-.014-10.22-.026-18.905 4.448-9.184 4.733-15.12 8.883-18.99 15.126 3.87 16.32 15.11 24.972 21.148 37.694C272.228 93.345 275.33 101 275.33 101s2.13 1.55 3.76 2.028c1.082.318 2.46.004 3.263-.244.95 22.302 1.176 33.64.613 43.7-3.1 55.375-12.197 95.19-12.197 95.19s10.155 5.39 31.02 7.85c19.078 2.25 44.945 1.676 49.23 1.562 4.285.114 30.152.69 49.232-1.562 20.863-2.46 31.02-7.85 31.02-7.85s-6.614-39.815-9.714-95.19c-.563-10.052-2.092-21.38-1.704-43.65.818.236 2.086.49 3.096.194 1.63-.48 3.76-2.03 3.76-2.03s5.136-10.93 11.3-22.56c6.163-11.632 16.734-19.225 18.99-35.51-5.686-7.005-9.806-9.852-18.99-14.585-8.683-4.474-17.92-4.946-18.905-4.984zM192.97 80.113c7.784-9.884 18.99-26.776 18.99-37.186-5.955-5.146-9.806-9.25-18.99-13.983-9.186-4.733-18.99-5.59-18.99-5.59v79.195s2.3.957 3.93.478c1.63-.48 3.76-2.03 3.76-2.03s3.515-11 11.3-20.884z" id="q"/><linearGradient x1="84.001%" y1="95.984%" x2="-3.85%" y2="-29.78%" id="r"><stop stop-color="#F4A37D" offset="0%"/><stop stop-color="#23E8C2" offset="100%"/></linearGradient><path d="M84.617 2.103S74.375 13.123 71.392 17.06c-13.638 2.183-33.466 5.893-33.466 5.893S35.253 57.14 36.7 88.955c1.448 31.815 1.895 45.575 1.226 57.528-3.1 55.376-12.197 95.19-12.197 95.19s10.155 5.39 31.018 7.85c19.08 2.252 44.947 1.677 49.232 1.563 4.285.114 30.152.69 49.23-1.562 20.865-2.46 31.02-7.85 31.02-7.85s-6.612-39.815-9.713-95.19c-.67-11.954-2.705-25.714-1.258-57.53 1.446-31.814-1.226-66-1.226-66s-17.785-2.654-30.982-5.895c-3.214-3.22-11.32-11.634-14.507-14.957-10.186 0-11.207.633-21.666.633-10.46 0-22.263-.633-22.263-.633z" id="a"/><mask id="t" x="0" y="0" width="160.501" height="249.133" fill="#fff"><use xlink:href="#a"/></mask><path d="M314.894 15.98c-13.356 1.564-31.928 6.973-31.928 6.973s-2.672 34.187-1.225 66.002c1.448 31.815 1.895 45.575 1.226 57.528-3.1 55.376-12.197 95.19-12.197 95.19s10.155 5.39 31.02 7.85c19.078 2.252 44.945 1.677 49.23 1.563 4.285.114 30.152.69 49.232-1.562 20.863-2.46 31.02-7.85 31.02-7.85s-6.614-39.815-9.714-95.19c-.67-11.954-2.706-25.714-1.258-57.53 1.447-31.814-1.226-66-1.226-66s-17.71-5.41-31.066-6.974c-5.8 1.41-22.874 4.392-36.988 4.392-14.113 0-30.327-2.98-36.126-4.392z" id="b"/><mask id="u" x="0" y="0" width="160.501" height="235.255" fill="#fff"><use xlink:href="#b"/></mask><path d="M327.71 0s12.68 3.077 23.57 3.077C362.174 3.077 374.183 0 374.183 0l14.207 17.21s-19.857 4.455-38.527 4.242c-18.67-.213-35.69-5.09-35.69-5.09L327.71 0z" id="c"/><mask id="v" x="0" y="0" width="74.214" height="21.46" fill="#fff"><use xlink:href="#c"/></mask><path d="M18.99 80.114c-6.137-6.64-13.43-17.406-15.63-23.437C1.157 50.647 0 42.927 0 42.927s9.806-9.25 18.99-13.982c9.186-4.733 18.99-5.59 18.99-5.59v79.195s-2.3.957-3.93.478c-1.63-.48-3.76-2.03-3.76-2.03s-5.162-14.243-11.3-20.884z" id="d"/><mask id="w" x="0" y="0" width="37.981" height="79.806" fill="#fff"><use xlink:href="#d"/></mask><path d="M266.188 80.622c-6.04-12.722-17.28-21.375-21.148-37.694 3.87-6.243 9.806-10.393 18.99-15.126 9.186-4.733 18.99-4.446 18.99-4.446v79.194s-2.3.957-3.93.478c-1.63-.48-3.76-2.03-3.76-2.03s-3.103-7.653-9.142-20.376z" id="e"/><mask id="x" x="0" y="0" width="37.981" height="79.81" fill="#fff"><use xlink:href="#e"/></mask><path d="M23.206 78.353c-7.084-8.39-12.438-10.647-17.394-18.483C.857 52.035 0 42.928 0 42.928s9.806-9.25 18.99-13.983c9.186-4.733 18.99-5.59 18.99-5.59v79.195s-2.3.957-3.93.478c-1.63-.48-3.76-2.03-3.76-2.03s0-14.256-7.084-22.645z" id="f"/><mask id="y" x="0" y="0" width="37.981" height="79.806" fill="#fff"><use xlink:href="#f"/></mask><path d="M23.587 50.228c-11.395 5.71-19.838 1.54-21.713-1.437C0 45.816 0 42.93 0 42.93s9.806-9.25 18.99-13.983c9.186-4.733 18.99-5.59 18.99-5.59S34.983 44.52 23.588 50.23z" id="g"/><mask id="z" x="0" y="0" width="37.981" height="29.714" fill="#fff"><use xlink:href="#g"/></mask><path d="M192.97 80.114c-7.785-9.884-18.99-26.776-18.99-37.186 5.954-5.146 9.804-9.25 18.99-13.983 9.184-4.733 18.99-5.59 18.99-5.59v79.195s-2.3.957-3.932.478c-1.63-.48-3.76-2.03-3.76-2.03s-3.514-11-11.3-20.884z" id="h"/><mask id="A" x="0" y="0" width="37.981" height="79.806" fill="#fff"><use xlink:href="#h"/></mask><path d="M438.01 78.437c-6.164-11.63-16.735-19.224-18.99-35.51 5.685-7.004 9.804-9.85 18.99-14.584 9.184-4.733 18.99-4.987 18.99-4.987v79.194s-2.3.957-3.93.478c-1.632-.48-3.762-2.03-3.762-2.03s-5.135-10.93-11.3-22.56z" id="i"/><mask id="B" x="0" y="0" width="37.981" height="79.806" fill="#fff"><use xlink:href="#i"/></mask><path d="M197.184 78.353c-7.083-8.39-12.438-10.647-17.393-18.483-4.955-7.835-5.81-16.942-5.81-16.942s9.804-9.25 18.99-13.983c9.184-4.733 18.99-5.59 18.99-5.59v79.195s-2.3.957-3.932.478c-1.63-.48-3.76-2.03-3.76-2.03s0-14.256-7.084-22.645z" id="j"/><mask id="C" x="0" y="0" width="37.981" height="79.806" fill="#fff"><use xlink:href="#j"/></mask><path d="M197.566 50.228c-11.395 5.71-19.84 1.54-21.713-1.437-1.874-2.975-1.874-5.862-1.874-5.862s9.804-9.25 18.99-13.983c9.184-4.733 18.99-5.59 18.99-5.59s-3 21.163-14.394 26.873z" id="k"/><mask id="D" x="0" y="0" width="37.981" height="29.714" fill="#fff"><use xlink:href="#k"/></mask><path d="M71.062 17.043L84.952 2.46s-.215 12.728 2.968 20.79c3.183 8.064 10.206 12.58 10.206 12.58s-4.727 0-12.037 4.105c-7.31 4.107-15.028 13.01-15.028 13.01V17.044z" id="l"/><mask id="E" x="0" y="0" width="27.064" height="50.488" fill="#fff"><use xlink:href="#l"/></mask><path d="M116.09 17.043L129.98 2.46s-.215 12.728 2.968 20.79c3.183 8.064 11.116 12.73 11.116 12.73s-5.68.735-12.99 4.842c-7.31 4.107-15.905 12.867-15.905 12.867l.92-36.647z" id="m"/><mask id="F" x="0" y="0" width="28.895" height="51.23" fill="#fff"><use xlink:href="#m"/></mask><path d="M89.78 37.65c4.145-1.34 7.07-1.997 7.07-1.997s5.353-.283 11.058 3.59c5.705 3.876 4.875 10.606 4.875 10.606s-7.295 1.074-15.933-1.028c-8.638-2.102-14.762-6.75-14.762-6.75s3.548-3.082 7.692-4.422z" id="n"/><mask id="G" x="0" y="0" width="30.737" height="14.475" fill="#fff"><use xlink:href="#n"/></mask><path d="M110.006 43.48c-.99-2.368-3.414-4.63-3.414-4.63s3.326-.823 5.822-1.916 4.963-2.514 4.963-2.514 4.78 1.71 7.47 3.12c2.686 1.41 5.908 3.298 5.908 3.298s-5.307 4.887-9.215 6.38c-3.907 1.49-10.2 1.514-10.2 1.514s-.344-2.887-1.334-5.253z" id="o"/><mask id="H" x="0" y="0" width="24.162" height="14.313" fill="#fff"><use xlink:href="#o"/></mask><path d="M99.24 47.94s3.473.443 6.74.443h6.738v202.492H99.24V47.94z" id="p"/><mask id="I" x="0" y="0" width="13.477" height="202.934" fill="#fff"><use xlink:href="#p"/></mask></defs><g fill="none" fill-rule="evenodd"><path stroke="#F6F0F3" stroke-width="1.119" d="M1 1h500v397H1z"/><g transform="translate(22 73)"><mask id="s" fill="#fff"><use xlink:href="#q"/></mask><use fill="#D8D8D8" xlink:href="#q"/><path fill="url(#r)" mask="url(#s)" d="M-45.332-92.195h547.665v436.39H-45.332z"/></g><g transform="translate(22 73)" stroke="#000"><use mask="url(#t)" stroke-width="2.457" xlink:href="#a"/><use mask="url(#u)" stroke-width="2.457" xlink:href="#b"/><use mask="url(#v)" stroke-width="2.457" xlink:href="#c"/><path d="M282.41 57.16h137.22" stroke-width="1.228" stroke-linecap="square"/><path d="M340.697 57c0 3.564-1.794 4.6-2.697 8.015M356.538 57c0 3.564 1.795 4.6 2.697 8.015M344.175 57c-1.22 3.722 1.168 3.145-2.175 8.348M361 57c1.22 3.722-1.168 3.145 2.175 8.348M353.558 56.86c.67 3.86 2.507 2.23 1.998 8.393M347.523 57.522c-1.11 3.14.2 5.173 0 8.215M350.76 57.632c-1.104 4.29 1.46 3.082.532 8.493"/><use mask="url(#w)" stroke-width="2.457" xlink:href="#d"/><use mask="url(#x)" stroke-width="2.457" xlink:href="#e"/><use mask="url(#y)" stroke-width="2.457" xlink:href="#f"/><use mask="url(#z)" stroke-width="2.457" xlink:href="#g"/><path d="M39.206 147.512c2.245 16.983 10.46 33.945 9.604 45.19M283.02 114.322c2.246 20.965 10.46 41.904 9.605 55.785M100.285 78.673c-18.934 0-47.62.73-62.304 4.443" stroke-width="1.228"/><use mask="url(#A)" stroke-width="2.457" transform="matrix(-1 0 0 1 385.938 0)" xlink:href="#h"/><use mask="url(#B)" stroke-width="2.457" transform="matrix(-1 0 0 1 876.02 0)" xlink:href="#i"/><use mask="url(#C)" stroke-width="2.457" transform="matrix(-1 0 0 1 385.938 0)" xlink:href="#j"/><use mask="url(#D)" stroke-width="2.457" transform="matrix(-1 0 0 1 385.938 0)" xlink:href="#k"/><path d="M175.803 146.75c-2.245 18.304-10.46 36.584-9.604 48.704M418.883 125.385c-.854 16.983-3.978 33.945-3.652 45.19M111.493 78.673c18.934 0 47.744.763 62.43 4.476" stroke-width="1.228"/><use mask="url(#E)" stroke-width="2.457" xlink:href="#l"/><use mask="url(#F)" stroke-width="2.457" transform="matrix(-1 0 0 1 259.233 0)" xlink:href="#m"/><path d="M84.54 2.46s11.48.77 22.705.77c11.226 0 21.574-.77 21.574-.77v4.153s-9.69 1.593-21.575 1.593C95.358 8.206 84.54 7.18 84.54 7.18V2.46z" stroke-width="1.228"/><use mask="url(#G)" stroke-width="2.457" xlink:href="#n"/><use mask="url(#H)" stroke-width="2.457" xlink:href="#o"/><use mask="url(#I)" stroke-width="2.457" xlink:href="#p"/><ellipse stroke-width="1.228" cx="105.98" cy="43.639" rx="1.838" ry="1.844"/><ellipse stroke-width="1.228" cx="105.98" cy="55.932" rx="1.838" ry="1.844"/><ellipse stroke-width="1.228" cx="105.98" cy="80.517" rx="1.838" ry="1.844"/><ellipse stroke-width="1.228" cx="105.98" cy="108.79" rx="1.838" ry="1.844"/><ellipse stroke-width="1.228" cx="105.98" cy="135.834" rx="1.838" ry="1.844"/><ellipse stroke-width="1.228" cx="105.98" cy="162.878" rx="1.838" ry="1.844"/><ellipse stroke-width="1.228" cx="105.98" cy="188.693" rx="1.838" ry="1.844"/><ellipse stroke-width="1.228" cx="105.98" cy="215.737" rx="1.838" ry="1.844"/><path d="M85.626 16.5c13.6 3.078 29.262 4.964 43.236-.08" stroke-width="1.228"/><path d="M78.303 79.555c0 2.675 1.794 3.45 2.697 6.015M74.685 79c1.22 2.83-1.168 2.392 2.175 6.348M71.477 79.522c1.11 2.375-.2 3.914 0 6.215M68.24 79.632c1.104 3.28-1.46 2.356-.532 6.493M133.697 79.555c0 2.675-1.794 3.45-2.697 6.015M137.315 79c-1.22 2.83 1.168 2.392-2.175 6.348M140.523 79.522c-1.11 2.375.2 3.914 0 6.215M143.76 79.632c-1.104 3.28 1.46 2.356.532 6.493"/></g></g></svg>