<svg width="502" height="402" viewBox="0 0 502 402" xmlns="http://www.w3.org/2000/svg" xmlns:xlink="http://www.w3.org/1999/xlink"><title>camiseta-thumb</title><defs><path d="M0 129.126S28.64 119.28 39.033 84.9c10.393-34.38 0-84.9 0-84.9h16.833s-.924 64.008 33.668 64.008c34.59 0 34.59-64.008 34.59-64.008h18.91s-11.18 58.675 0 90.138C154.22 121.602 184 129.126 184 129.126v115H0v-115zm230 0s25.846-16.502 36.238-50.88C276.63 43.865 269.033 0 269.033 0h16.833S287.41 35.57 322 35.57C356.59 35.57 354.125 0 354.125 0h18.91s-7.97 55.662 3.212 87.125 37.753 42 37.753 42v115H230v-115z" id="c"/><linearGradient x1="2.586%" y1="1.83%" y2="100%" id="d"><stop stop-color="#E78F8F" offset="0%"/><stop stop-color="#4AAAE7" offset="100%"/></linearGradient><path d="M0 129.126S28.64 119.28 39.033 84.9c10.393-34.38 0-84.9 0-84.9h16.833s-.924 64.008 33.668 64.008c34.59 0 34.59-64.008 34.59-64.008h18.91s-11.18 58.675 0 90.138C154.22 121.602 184 129.126 184 129.126v115H0v-115z" id="a"/><mask id="f" x="0" y="0" width="184" height="244.126" fill="#fff"><use xlink:href="#a"/></mask><path d="M230 129.126s25.846-16.502 36.238-50.88C276.63 43.865 269.033 0 269.033 0h16.833S287.41 35.57 322 35.57C356.59 35.57 354.125 0 354.125 0h18.91s-7.97 55.662 3.212 87.125 37.753 42 37.753 42v115H230v-115z" id="b"/><mask id="g" x="0" y="0" width="184" height="244.126" fill="#fff"><use xlink:href="#b"/></mask></defs><g fill="none" fill-rule="evenodd"><path stroke="#F6F0F3" d="M1 1h500v400H1z"/><g transform="translate(44 79)"><mask id="e" fill="#fff"><use xlink:href="#c"/></mask><path fill="url(#d)" mask="url(#e)" d="M-43-78h500v400H-43z"/></g><g transform="translate(44 79)" stroke="#000" stroke-width="2"><use mask="url(#f)" xlink:href="#a"/><use mask="url(#g)" xlink:href="#b"/></g></g></svg>