<svg width="449" height="357" viewBox="0 0 449 357" xmlns="http://www.w3.org/2000/svg" xmlns:xlink="http://www.w3.org/1999/xlink"><title>pelum-mold</title><defs><path d="M118.352 57.115C106.546 47.312 102.915 31 102.915 31L74.79 38.793s9.386 37.27-1.876 57.978c-11.26 20.708-35.247 18-35.247 18L35 136.997s5.996 19.19 9.412 38.838C47.827 195.483 48.04 211 48.04 211h192.92s.213-15.517 3.628-35.164c3.416-19.647 9.412-38.838 9.412-38.838l-2.667-22.23s-23.986 2.71-35.247-17.997c-11.262-20.706-1.875-57.977-1.875-57.977L186.086 31s-3.63 16.312-15.437 26.115C158.842 66.918 144.5 67.547 144.5 67.547s-14.342-.63-26.148-10.432zm163.19 226.448c-34.238 33.986-83.112 55.25-137.368 55.25-54.154 0-102.946-21.184-137.174-55.06L64.134 227c19.352 20.664 48.473 33.812 81.04 33.812 32.237 0 61.097-12.883 80.448-33.185l55.92 55.936zm148.632 55.25c-54.154 0-102.946-21.184-137.174-55.06L350.134 227c19.352 20.664 48.473 33.812 81.04 33.812 0 8.188-1 64.49-1 78zM328.65 163.615c-3.517-18.51-8.65-35.226-8.65-35.226s28.594-5.887 37.803-31.42c9.208-25.533 0-73.398 0-73.398L384.693 13s6.732 10.42 19.22 14.015c12.49 3.595 26.023 3.595 26.023 3.595V207h-95.001s-2.77-24.873-6.286-43.384z" id="c"/><linearGradient x1="2.586%" y1="1.83%" y2="100%" id="d"><stop stop-color="#99EC97" offset="0%"/><stop stop-color="#F2D858" offset="100%"/></linearGradient><path d="M111.352 44.115C99.546 34.312 95.915 18 95.915 18L67.79 25.793s9.386 37.27-1.876 57.978c-11.26 20.708-35.247 18-35.247 18L28 123.997s5.996 19.19 9.412 38.838C40.827 182.483 41.04 198 41.04 198h192.92s.213-15.517 3.628-35.164c3.416-19.647 9.412-38.838 9.412-38.838l-2.667-22.23s-23.986 2.71-35.247-17.997c-11.262-20.706-1.875-57.977-1.875-57.977L179.086 18s-3.63 16.312-15.437 26.115C151.842 53.918 137.5 54.547 137.5 54.547s-14.342-.63-26.148-10.432z" id="a"/><mask id="f" x="0" y="0" width="219" height="180" fill="#fff"><use xlink:href="#a"/></mask><path d="M321.65 150.616c-3.517-18.51-8.65-35.226-8.65-35.226s28.594-5.887 37.803-31.42c9.208-25.533 0-73.398 0-73.398L377.693 0s6.732 10.42 19.22 14.015c12.49 3.595 26.023 3.595 26.023 3.595V194h-95s-2.77-24.873-6.286-43.384z" id="b"/><mask id="g" x="0" y="0" width="109.936" height="194" fill="#fff"><use xlink:href="#b"/></mask></defs><g fill="none" fill-rule="evenodd"><g transform="translate(1 1)"><path stroke="#F6F0F3" d="M0 0h447v355H0z"/><mask id="e" fill="#fff"><use xlink:href="#c"/></mask><path fill="url(#d)" mask="url(#e)" d="M-22-16h500v400H-22z"/></g><g transform="translate(8 14)" stroke="#000"><use mask="url(#f)" stroke-width="2" xlink:href="#a"/><path d="M30 114c7.698 3.754 53.415 2.428 53.415 2.428l-51.3 15.37M87 197.254s.96-38.29 4.85-65.254c4.12 23.302 5.132 65.254 5.132 65.254M245.415 114c-7.7 3.754-53.415 2.428-53.415 2.428l51.3 15.37M186.982 197.254s-.96-38.29-4.85-65.254c-4.12 23.302-5.132 65.254-5.132 65.254" stroke-linecap="round" stroke-linejoin="round"/><path d="M274.54 270.563c-34.236 33.986-83.11 55.25-137.366 55.25-54.154 0-102.946-21.184-137.174-55.06L57.134 214c19.352 20.664 48.473 33.812 81.04 33.812 32.237 0 61.097-12.883 80.448-33.185l55.92 55.936zM423.174 325.812c-54.154 0-102.946-21.183-137.174-55.06L343.134 214c19.352 20.664 48.473 33.812 81.04 33.812 0 8.188-1 64.49-1 78z"/><use mask="url(#g)" stroke-width="2" xlink:href="#b"/><path d="M373 193.15s0-52.603 4.662-99.15c4.19 36.788 4.19 99.15 4.19 99.15" stroke-linecap="round" stroke-linejoin="round"/></g><text font-family="HelveticaNeue, Helvetica Neue" font-size="21" letter-spacing=".05" fill="#000" transform="translate(1 1)"><tspan x="36" y="49">01</tspan></text><text font-family="HelveticaNeue, Helvetica Neue" font-size="21" letter-spacing=".05" fill="#000" transform="translate(1 1)"><tspan x="10" y="250">03</tspan></text><text font-family="HelveticaNeue, Helvetica Neue" font-size="21" letter-spacing=".05" fill="#000" transform="translate(1 1)"><tspan x="320" y="49">02</tspan></text><text font-family="HelveticaNeue, Helvetica Neue" font-size="21" letter-spacing=".05" fill="#000" transform="translate(1 1)"><tspan x="297" y="247">04</tspan></text></g></svg>