<svg width="502" height="402" viewBox="0 0 502 402" xmlns="http://www.w3.org/2000/svg" xmlns:xlink="http://www.w3.org/1999/xlink"><title>peplum-thumb</title><defs><path d="M426.15 244.716l.514-.066s6.772 19.682 13.76 34.416C447.41 293.8 460 314.95 460 314.95s-11.97 0-17.618 3.874c-5.647 3.874-12.723 10.42-24.47 11.542-11.75 1.122-14.56-4.508-27.753-3.918-13.195.59-9.62 5.3-24.428 6.253-14.808.954-19.583-5.562-36.41-2.334-16.827 3.228-35.984 0-35.984 0s-17.8-5.408-21.668-11.542c-3.867-6.134-21.913-3.874-21.913-3.874s12.815-16.462 21.913-35.884c8.372-17.874 10.665-31.997 10.978-34.136l-.442-.072s-.363-21.018-2.057-41.557c-1.696-20.538-4.865-42.346-4.865-42.346s15.262-5.42 21.253-29.09c5.99-23.667 3.3-54.835 3.3-54.835l21.663-3.172s5.776 11.173 32.55 11.173c26.777 0 31.084-11.172 31.084-11.172l22.023 3.17s-3.052 22.823 2.822 52.578c5.874 29.755 22.14 31.348 22.14 31.348s-3.264 22.254-4.877 42.347c-1.537 19.143-1.135 39.53-1.094 41.416zm-353.48-.023l-.334-.043s-6.772 19.682-13.76 34.416C51.59 293.8 39 314.95 39 314.95s11.97 0 17.618 3.874c5.647 3.874 12.723 10.42 24.47 11.542 11.75 1.122 14.56-4.508 27.753-3.918 13.195.59 9.62 5.3 24.428 6.253 14.808.954 19.583-5.562 36.41-2.334 16.827 3.228 35.984 0 35.984 0s17.8-5.408 21.668-11.542c3.867-6.134 21.913-3.874 21.913-3.874s-12.815-16.462-21.913-35.884c-9.098-19.423-11.017-34.416-11.017-34.416l-.47.06c-.034-1.734-.32-18.456.95-37.697 1.345-20.33 4.89-50.49 4.89-50.49s-15.12-4.69-21.11-28.36c-5.992-23.668-2.6-54.305-2.6-54.305L176.09 67s0 35.844-32.473 35.844C111.142 102.844 111.43 67 111.43 67l-20.817 6.858s3.152 27.107-2.838 52.053c-5.99 24.948-22.225 30.612-22.225 30.612s3.223 24.462 5.222 49.258c1.873 23.253 1.9 37.26 1.897 38.913z" id="e"/><linearGradient x1="2.586%" y1="1.83%" y2="100%" id="f"><stop stop-color="#99EC97" offset="0%"/><stop stop-color="#F2D858" offset="100%"/></linearGradient><path d="M19.577 212.066c6.987-14.734 13.76-34.416 13.76-34.416s35.336 4.665 71.784 4.665c36.45 0 72.193-4.665 72.193-4.665s1.92 14.993 11.017 34.416c9.098 19.422 21.913 35.884 21.913 35.884s-18.046-2.26-21.913 3.874c-3.867 6.134-21.668 11.542-21.668 11.542s-19.157 3.228-35.984 0-21.602 3.288-36.41 2.335c-14.807-.953-11.233-5.662-24.427-6.252-13.193-.59-16.002 5.04-27.75 3.918-11.75-1.12-18.825-7.668-24.472-11.542C11.97 247.95 0 247.95 0 247.95s12.59-21.15 19.577-35.884z" id="a"/><mask id="h" x="0" y="0" width="210.243" height="88.147" fill="#fff"><use xlink:href="#a"/></mask><path d="M31.772 138.78c-2-24.796-5.222-49.258-5.222-49.258s16.235-5.664 22.225-30.61c5.99-24.947 2.838-52.054 2.838-52.054L72.43 0s-.288 35.844 32.187 35.844C137.09 35.844 137.09 0 137.09 0l21.883 6.858s-3.392 30.637 2.6 54.305c5.99 23.67 21.11 28.36 21.11 28.36s-3.545 30.16-4.89 50.49c-1.342 20.33-.947 37.845-.947 37.845s-30.727 5.19-68.636 5.19c-37.91 0-74.542-5.19-74.542-5.19s.102-14.282-1.896-39.078z" id="b"/><mask id="i" x="0" y="0" width="156.134" height="183.049" fill="#fff"><use xlink:href="#b"/></mask><path d="M230.334 212.066c6.987-14.734 13.76-34.416 13.76-34.416s35.336 4.665 71.785 4.665c36.447 0 72.19-4.665 72.19-4.665s1.92 14.993 11.017 34.416C408.185 231.488 421 247.95 421 247.95s-18.046-2.26-21.913 3.874c-3.867 6.134-21.668 11.542-21.668 11.542s-19.158 3.228-35.985 0c-16.827-3.228-21.602 3.288-36.41 2.335-14.807-.953-11.233-5.662-24.427-6.252-13.194-.59-16.003 5.04-27.752 3.918-11.748-1.12-18.824-7.668-24.47-11.542-5.648-3.874-17.62-3.874-17.62-3.874s12.59-21.15 19.578-35.884z" id="c"/><mask id="j" x="0" y="0" width="210.243" height="88.147" fill="#fff"><use xlink:href="#c"/></mask><path d="M241.163 136.3c-1.614-20.092-4.878-42.346-4.878-42.346s16.266-1.593 22.14-31.348C264.3 32.85 261.25 10.03 261.25 10.03l22.023-3.172s4.31 11.173 31.084 11.173c26.775 0 32.55-11.172 32.55-11.172l21.663 3.17s-2.69 31.17 3.3 54.837c5.99 23.67 21.254 29.09 21.254 29.09s-3.17 21.807-4.863 42.346c-1.695 20.54-2.057 41.558-2.057 41.558s-30.727 5.19-68.636 5.19c-37.91 0-75.31-5.19-75.31-5.19s.522-21.465-1.09-41.557z" id="d"/><mask id="k" x="0" y="0" width="156.836" height="176.191" fill="#fff"><use xlink:href="#d"/></mask></defs><g fill="none" fill-rule="evenodd"><g transform="translate(1 1)"><path stroke="#F6F0F3" d="M0 0h500v400H0z"/><mask id="g" fill="#fff"><use xlink:href="#e"/></mask><path fill="url(#f)" mask="url(#g)" d="M0 0h500v400H0z"/></g><g transform="translate(40 68)" stroke="#000"><use mask="url(#h)" stroke-width="1.901" stroke-linecap="round" stroke-linejoin="round" xlink:href="#a"/><use mask="url(#i)" stroke-width="1.901" stroke-linecap="round" stroke-linejoin="round" xlink:href="#b"/><use mask="url(#j)" stroke-width="1.901" transform="matrix(-1 0 0 1 631.757 0)" xlink:href="#c"/><use mask="url(#k)" stroke-width="1.901" transform="matrix(-1 0 0 1 629.405 0)" xlink:href="#d"/><path d="M274.503 180.975V75.52M351.307 180.975V75.52" stroke-width=".95" stroke-linecap="square"/><path d="M30.425 109.603c8.472-3.197 29.275-7.494 29.275-7.494M179.918 110.556c-11.803-4.545-30.446-8.596-30.446-8.596M144.6 180.975v-62.73M64.952 180.975v-61.78M22.6 254.258c6.957-11.764 16.576-42.57 16.576-42.57M53.04 261.33c3.02-17.224 13.175-59.206 13.175-59.206M86.63 264.072c0-15.842 5.984-49.675 5.984-49.675M135.462 263.66c0-25.425-9.54-60.23-9.54-60.23M185.92 254.112c-2.687-10.127-9.75-28.146-9.75-28.146" stroke-width=".95" stroke-linecap="round" stroke-linejoin="round"/><path d="M314.328 17.575v246.057" stroke-width=".95" stroke-linecap="square"/><path d="M234.714 252.622c5.053-9.76 9.492-28.46 9.492-28.46M282.764 263.16c3.017-19.98 12.117-61.34 12.117-61.34M332.236 264.31c0-17.99-6.746-55.785-6.746-55.785M365.57 259.935c-2.55-21.012-15.527-62.174-15.527-62.174M394.658 257.525c-7.358-12.092-16.385-43.866-16.385-43.866" stroke-width=".95"/></g></g></svg>