<svg width="180" height="84" viewBox="0 0 180 84" xmlns="http://www.w3.org/2000/svg"><title>modplan-logo-color</title><defs><linearGradient x1="142.813%" y1="-44.264%" x2="35.178%" y2="78.933%" id="a"><stop stop-color="#D46626" offset="0%"/><stop stop-color="#2C0C69" offset="100%"/></linearGradient></defs><g fill="none" fill-rule="evenodd"><path d="M86.388 1.152L73.543 20.456 60.698 1.152h-4.03v35.373h3.88V7.923l12.844 18.9h.2L86.44 7.873v28.652h3.98V1.152h-4.03zm7.165 17.242v-.1C93.553 8.54 100.857 0 111.587 0c10.728 0 17.932 8.44 17.932 18.193v.1c0 9.753-7.305 18.293-18.034 18.293-10.73 0-17.933-8.44-17.933-18.192zm31.752.112v-.1c0-8.035-5.843-14.606-13.902-14.606-8.06 0-13.803 6.47-13.803 14.505v.1c0 8.035 5.843 14.606 13.904 14.606 8.06 0 13.8-6.468 13.8-14.504zm8.59-17.354h12.24c11.083 0 18.74 7.63 18.74 17.587v.1c0 9.955-7.657 17.687-18.74 17.687h-12.24V1.152zm12.366 31.845c8.917 0 14.61-6.064 14.61-13.897V19c0-7.834-5.693-14-14.61-14H138v27.997h8.26zm-89.59 8.665h13.196c7.96 0 13.198 4.245 13.198 11.22v.1c0 7.63-6.347 11.573-13.852 11.573h-8.564v12.48h-3.98V41.663zM68.84 60.916c5.842 0 9.67-3.133 9.67-7.782v-.102c0-5.053-3.778-7.68-9.47-7.68h-8.915v15.564h8.715zm17.365-19.254h3.98v31.686h19.846v3.69H86.207V41.66zm41.88-.253h3.728l16.068 35.626h-4.28l-4.133-9.348h-19.19l-4.18 9.348h-4.082l16.07-35.627zm9.823 22.69l-8.01-18.04-8.06 18.04h16.07zm11.96-22.438h3.726l22.213 28.35v-28.35h3.878v35.375h-3.172L153.748 48.03v29.007h-3.88V41.662zM0 84h180v-3.862H0V84z" fill="#2C0C69"/><path d="M27.23 0c-2.02.01-4.123.19-5.814.604-.906.22-1.33.82-1.38 1.247-.14 1.267 0 2.565-.157 3.827-.162 1.286-.256 2.7-1.553 3.48-2.464 1.485-6.893 4.195-10.985 4.794-2.308.34-3.8 1.524-4.455 3.854-1.1 3.924-.623 7.83.294 11.634 1.47 6.095 3.682 10.6 6.724 16.414 1.75 3.34 4.177 8.27 4.432 13.22.215 4.218-1.086 7.586-3.224 10.64C8.886 72.886 3.29 74.613.127 80.097v2.162H50.96c-.465-1.583-1.13-3.174-1.87-4.596-2.237-4.304-5.222-6.56-6.927-11.106-.746-1.985-.825-5.007-.502-6.528.4-1.875 1.51-3.613 2.39-5.37.975-1.94 2.038-3.833 3.063-5.747 2.135-3.294 3.7-6.834 4.47-10.693.378-1.9.2-3.727-.775-5.496-.908-1.645-1.887-3.338-2.32-5.136-.77-3.195-1.244-6.473-1.658-9.74-.185-1.462-.7-2.475-2.018-3.09-2.26-1.054-4.477-2.206-6.777-3.162-2.43-1.008-3.86-2.626-3.888-5.34-.01-.97-.2-2.598-.146-3.564.078-1.46-1-2.228-2.038-2.387C30.76.122 29.235.01 27.64 0h-.41z" fill="url(#a)"/></g></svg>