<svg width="180" height="84" viewBox="0 0 180 84" xmlns="http://www.w3.org/2000/svg"><title>modplan-logo-flat</title><path d="M50.224 80.138H180V84H0v-3.862h.127v-.04c3.163-5.484 8.76-7.21 10.985-10.387 2.138-3.052 3.44-6.42 3.224-10.64-.255-4.948-2.683-9.877-4.432-13.218-3.042-5.814-5.254-10.32-6.723-16.414-.916-3.805-1.394-7.71-.293-11.634.654-2.33 2.147-3.515 4.455-3.853 4.092-.598 8.52-3.308 10.985-4.793 1.297-.78 1.39-2.194 1.552-3.48.155-1.262.015-2.56.156-3.826.05-.426.474-1.025 1.38-1.246C23.106.19 25.21.01 27.23 0h.41c1.595.01 3.12.122 4.322.305 1.038.16 2.116.927 2.04 2.387-.054.966.134 2.593.145 3.563.03 2.715 1.46 4.333 3.888 5.34 2.3.957 4.517 2.11 6.777 3.163 1.32.615 1.833 1.628 2.018 3.09.414 3.267.887 6.545 1.66 9.74.43 1.798 1.41 3.49 2.318 5.136.976 1.77 1.153 3.595.775 5.496-.77 3.86-2.335 7.4-4.47 10.693-1.025 1.914-2.088 3.807-3.063 5.747-.88 1.757-1.99 3.495-2.39 5.37-.322 1.52-.243 4.543.503 6.528 1.705 4.546 4.69 6.802 6.928 11.106.408.783.793 1.618 1.134 2.474zM86.388 1.152L73.543 20.456 60.698 1.152h-4.03v35.373h3.88V7.923l12.844 18.9h.2L86.44 7.873v28.652h3.98V1.152h-4.03zm7.165 17.242v-.1C93.553 8.54 100.857 0 111.587 0c10.728 0 17.932 8.44 17.932 18.193v.1c0 9.753-7.305 18.293-18.034 18.293-10.73 0-17.933-8.44-17.933-18.192zm31.752.112v-.1c0-8.035-5.843-14.606-13.902-14.606-8.06 0-13.803 6.47-13.803 14.505v.1c0 8.035 5.843 14.606 13.904 14.606 8.06 0 13.8-6.468 13.8-14.504zm8.59-17.354h12.24c11.083 0 18.74 7.63 18.74 17.587v.1c0 9.955-7.657 17.687-18.74 17.687h-12.24V1.152zm12.366 31.845c8.917 0 14.61-6.064 14.61-13.897V19c0-7.834-5.693-14-14.61-14H138v27.997h8.26zm-89.59 8.665h13.196c7.96 0 13.198 4.245 13.198 11.22v.1c0 7.63-6.347 11.573-13.852 11.573h-8.564v12.48h-3.98V41.663zM68.84 60.916c5.842 0 9.67-3.133 9.67-7.782v-.102c0-5.053-3.778-7.68-9.47-7.68h-8.915v15.564h8.715zm17.365-19.254h3.98v31.686h19.846v3.69H86.207V41.66zm41.88-.253h3.728l16.068 35.626h-4.28l-4.133-9.348h-19.19l-4.18 9.348h-4.082l16.07-35.627zm9.823 22.69l-8.01-18.04-8.06 18.04h16.07zm11.96-22.438h3.726l22.213 28.35v-28.35h3.878v35.375h-3.172L153.748 48.03v29.007h-3.88V41.662z" fill="#FFF" fill-rule="evenodd"/></svg>