<?xml version="1.0" encoding="UTF-8" standalone="no"?>
<svg width="664px" height="620px" viewBox="0 0 664 620" version="1.1" xmlns="http://www.w3.org/2000/svg" xmlns:xlink="http://www.w3.org/1999/xlink">
    <!-- Generator: Sketch 39.1 (31720) - http://www.bohemiancoding.com/sketch -->
    <title>default-image</title>
    <desc>Created with Sketch.</desc>
    <defs>
        <linearGradient x1="75.8862429%" y1="26.9612023%" x2="25.6922891%" y2="77.3887387%" id="linearGradient-1">
            <stop stop-color="#D3126A" offset="0%"></stop>
            <stop stop-color="#470E50" offset="100%"></stop>
        </linearGradient>
        <rect id="path-2" x="0" y="0" width="664" height="620"></rect>
        <linearGradient x1="142.813348%" y1="-44.2639859%" x2="35.1777197%" y2="78.9328876%" id="linearGradient-3">
            <stop stop-color="#D46626" offset="0%"></stop>
            <stop stop-color="#2C0C69" offset="100%"></stop>
        </linearGradient>
    </defs>
    <g id="Page-1" stroke="none" stroke-width="1" fill="none" fill-rule="evenodd">
        <g id="default-image">
            <g id="Mask">
                <use fill="url(#linearGradient-1)" xlink:href="#path-2"></use>
                <use fill-opacity="0.700000048" fill="#FFFFFF" style="mix-blend-mode: lighten;" xlink:href="#path-2"></use>
            </g>
            <g id="modplan-logo-color" transform="translate(242.000000, 268.000000)">
                <path d="M86.388261,1.15228299 L73.5432951,20.456135 L60.6983291,1.15228299 L56.6688239,1.15228299 L56.6688239,36.5254867 L60.5477735,36.5254867 L60.5477735,7.92336697 L73.3915154,26.8232135 L73.5934803,26.8232135 L86.4384462,7.87424776 L86.4384462,36.5254867 L90.4177663,36.5254867 L90.4177663,1.15228299 L86.388261,1.15228299 Z M93.5529139,18.3939186 L93.5529139,18.2932242 C93.5529139,8.54060376 100.856698,0 111.586541,0 C122.31516,0 129.518574,8.43990936 129.518574,18.1925298 L129.518574,18.2932242 C129.518574,28.0458446 122.21479,36.5864484 111.486171,36.5864484 C100.756328,36.5864484 93.5529139,28.146539 93.5529139,18.3939186 Z M125.30466,18.5062965 L125.30466,18.4056021 C125.30466,10.3709262 119.462367,3.80000305 111.403357,3.80000305 C103.343122,3.80000305 97.5999756,10.2690039 97.5999756,18.3049077 L97.5999756,18.4056021 C97.5999756,26.4402779 103.443493,33.0112011 111.503727,33.0112011 C119.562738,33.0112011 125.30466,26.5422003 125.30466,18.5062965 Z M133.894887,1.15228299 L146.135183,1.15228299 C157.217546,1.15228299 164.873851,8.78295326 164.873851,18.7394184 L164.873851,18.8401128 C164.873851,28.79535 157.217546,36.5267147 146.135183,36.5267147 L133.894887,36.5267147 L133.894887,1.15228299 Z M146.260975,32.9967254 C155.176806,32.9967254 160.869768,26.9329581 160.869768,19.0996711 L160.869768,18.9989767 C160.869768,11.1656896 155.176806,5 146.260975,5 L138,5 L138,32.9967254 L146.260975,32.9967254 Z M56.6688239,41.6620598 L69.8664121,41.6620598 C77.8251136,41.6620598 83.0640004,45.9071881 83.0640004,52.8808888 L83.0640004,52.9815832 C83.0640004,60.6134815 76.7173583,64.5552986 69.2115513,64.5552986 L60.6481746,64.5552986 L60.6481746,77.0364915 L56.6688239,77.0364915 L56.6688239,41.6620598 Z M68.8417976,60.9155647 C74.6840906,60.9155647 78.512855,57.7829866 78.512855,53.1338528 L78.512855,53.0319304 C78.512855,47.978791 74.7342758,45.3509129 69.0425385,45.3509129 L60.1267073,45.3509129 L60.1267073,60.9155647 L68.8417976,60.9155647 Z M86.2070231,41.6624282 L90.1863431,41.6624282 L90.1863431,73.3480067 L110.032758,73.3480067 L110.032758,77.0368599 L86.2070231,77.0368599 L86.2070231,41.6624282 Z M128.086949,41.4088502 L131.815343,41.4088502 L147.883179,77.0362459 L143.601523,77.0362459 L139.470424,67.687631 L120.280088,67.687631 L116.098804,77.0362459 L112.017889,77.0362459 L128.086949,41.4088502 Z M137.909786,64.0994723 L129.899737,46.059212 L121.840726,64.0994723 L137.909786,64.0994723 Z M149.868554,41.6624282 L153.595724,41.6624282 L175.809412,70.0128119 L175.809412,41.6624282 L179.688362,41.6624282 L179.688362,77.0368599 L176.515678,77.0368599 L153.747504,48.0307346 L153.747504,77.0368599 L149.868554,77.0368599 L149.868554,41.6624282 Z M0,84 L180,84 L180,80.137931 L0,80.137931 L0,84 Z" id="modplan-logo-flat" fill="#2C0C69"></path>
                <path d="M27.2296895,0 C25.2088167,0.0110518237 23.107158,0.190336964 21.4155492,0.604166362 C20.5097673,0.825202836 20.0850291,1.42445728 20.0360679,1.85056648 C19.8953045,3.11661428 20.0348438,4.41458958 19.8793921,5.67695344 C19.7178202,6.96264893 19.6235699,8.37728236 18.3273226,9.15704992 C15.8633512,10.6416782 11.4335883,13.351831 7.34165755,13.9510854 C5.03436187,14.2887801 3.54104583,15.4737812 2.88741406,17.804488 C1.78578748,21.7278854 2.26438303,25.6328631 3.18118115,29.4383744 C4.65001659,35.5328412 6.86183797,40.0383013 9.90355137,45.8515606 C11.6526896,49.1928953 14.0811642,54.1220086 14.3357623,59.0707697 C14.5511915,63.2901104 13.2500481,66.6584606 11.1116685,69.7112199 C8.88638282,72.8867773 3.28951952,74.6142061 0.126627192,80.0983666 L0.126627192,82.2599519 L50.9611741,82.2599518 C50.4948189,80.677085 49.8301708,79.0856224 49.090857,77.6636211 C46.853331,73.3595497 43.867923,71.1037497 42.1628498,66.5577662 C41.4174158,64.5733499 41.3378539,61.5512901 41.6609977,60.0298224 C42.0612554,58.1546963 43.1690021,56.417104 44.0503034,54.659864 C45.0246309,52.719655 46.0883125,50.8273372 47.1128253,48.9129157 C49.2475328,45.6194723 50.8118425,42.0792047 51.5829811,38.2196623 C51.9612063,36.3187486 51.783722,34.4927418 50.8081704,32.72445 C49.8999405,31.0789562 48.9207169,29.3855712 48.4886345,27.5878079 C47.7174959,24.3926029 47.2437964,21.1151232 46.8300744,17.8486953 C46.645246,16.3861706 46.1311536,15.3730868 44.8116497,14.7578686 C42.5520912,13.7042614 40.3353737,12.5524158 38.0354222,11.595819 C35.6057236,10.5876471 34.1760571,8.9703969 34.1466804,6.25533221 C34.1356641,5.28522769 33.9483876,3.65815364 34.0010209,2.69173306 C34.0781347,1.23166435 32.9997647,0.464176595 31.9617877,0.304539142 C30.7585666,0.121570061 29.2346499,0.00859586288 27.6385153,0 L27.2296895,0 Z" id="manequim" fill="url(#linearGradient-3)"></path>
            </g>
        </g>
    </g>
</svg>